<svg width="19" height="19" viewBox="0 0 19 19" fill="none" xmlns="http://www.w3.org/2000/svg">
  <g clip-path="url(#clip0_22_174)">
    <path fill-rule="evenodd" clip-rule="evenodd" d="M3.90344 13.4344C3.90344 12.0031 7.15675 10.8438 11.1711 10.8438C15.1854 10.8438 18.4397 12.0031 18.4397 13.4344V15.8145C18.4397 17.2458 15.1854 18.4051 11.1711 18.4051C7.15675 18.4051 3.90344 17.2458 3.90344 15.8145V13.4344Z" fill="#FE9923" />
    <path fill-rule="evenodd" clip-rule="evenodd" d="M11.1711 10.8438C15.1853 10.8438 18.4397 12.0031 18.4397 13.4344C18.4397 14.8646 15.1854 16.025 11.1711 16.025C7.15675 16.025 3.90344 14.8646 3.90344 13.4344C3.90344 12.0031 7.15675 10.8438 11.1711 10.8438Z" fill="#FECD3D" />
    <path fill-rule="evenodd" clip-rule="evenodd" d="M11.171 10.8438C12.3929 10.8438 13.5446 10.9507 14.5549 11.1407V11.3123C14.5549 12.7436 11.3006 13.9029 7.28734 13.9029C6.07193 13.9029 4.9267 13.7971 3.91962 13.6093C3.90889 13.5516 3.90347 13.4931 3.90344 13.4344C3.90341 12.0031 7.15671 10.8438 11.171 10.8438Z" fill="#CEA732" />
    <path fill-rule="evenodd" clip-rule="evenodd" d="M11.1709 12.0538C14.3649 12.0538 16.9533 12.6724 16.9533 13.4344C16.9533 14.1965 14.3649 14.8139 11.1709 14.8139C7.97807 14.8139 5.38858 14.1964 5.38858 13.4344C5.38858 12.6724 7.97804 12.0538 11.1709 12.0538Z" fill="#FEA832" />
    <path fill-rule="evenodd" clip-rule="evenodd" d="M11.1709 12.0538C12.2287 12.0538 13.2207 12.1219 14.0745 12.2406C13.0264 13.2131 10.383 13.9029 7.28724 13.9029C6.71947 13.9029 6.16791 13.8802 5.63792 13.836C5.47601 13.7086 5.38858 13.5737 5.38858 13.4344C5.38858 12.6724 7.97804 12.0538 11.1709 12.0538Z" fill="#CE8829" />
    <path d="M16.4739 16.3185V17.5858C16.6973 17.5005 16.9056 17.4109 17.0956 17.3148V16.3175L16.4739 16.3185ZM14.8494 18.0488C14.6433 18.0919 14.4364 18.1308 14.2287 18.1654V16.9576L14.8494 16.9587V18.0488ZM12.6042 18.3543C12.4002 18.3694 12.193 18.3802 11.9836 18.3888V17.236L12.6042 17.2382V18.3543ZM10.3591 18.3888C10.1486 18.3802 9.94132 18.3694 9.73733 18.3543V17.2371H10.3591V18.3888ZM8.11283 18.1654C7.90517 18.1308 7.69824 18.0919 7.49217 18.0488V16.9575L8.11283 16.9586V18.1654ZM5.86767 17.5858C5.64424 17.5005 5.4359 17.4109 5.24594 17.3149V16.3186L5.86767 16.3175V17.5858Z" fill="#C85929" />
    <path fill-rule="evenodd" clip-rule="evenodd" d="M0.0185547 8.31048C0.0185547 6.87921 3.27294 5.71883 7.28724 5.71883C11.3004 5.71883 14.5549 6.87921 14.5549 8.31048V10.6906C14.5549 12.1208 11.3005 13.2811 7.28724 13.2811C3.27294 13.2811 0.0185547 12.1208 0.0185547 10.6906V8.31048Z" fill="#FE9923" />
    <path fill-rule="evenodd" clip-rule="evenodd" d="M7.28724 5.71883C11.3004 5.71883 14.5549 6.87921 14.5549 8.31048C14.5549 9.74067 11.3005 10.901 7.28724 10.901C3.27294 10.901 0.0185547 9.74071 0.0185547 8.31048C0.0185547 6.87921 3.27294 5.71883 7.28724 5.71883Z" fill="#FECD3D" />
    <path fill-rule="evenodd" clip-rule="evenodd" d="M7.28741 5.71883C11.3006 5.71883 14.555 6.87921 14.555 8.31048C14.555 8.45079 14.5237 8.58895 14.4622 8.72388C13.6948 8.81131 12.8766 8.85773 12.0271 8.85773C7.59616 8.85773 4.00394 7.57757 4.00394 5.99842C4.98938 5.82029 6.10544 5.71883 7.28741 5.71883Z" fill="#CEA732" />
    <path fill-rule="evenodd" clip-rule="evenodd" d="M7.2872 6.92994C10.4801 6.92994 13.0695 7.54844 13.0695 8.31048C13.0695 9.07252 10.4801 9.68995 7.2872 9.68995C4.09327 9.68995 1.50485 9.07252 1.50485 8.31048C1.50485 7.54844 4.09323 6.92994 7.2872 6.92994Z" fill="#FEA832" />
    <path fill-rule="evenodd" clip-rule="evenodd" d="M7.28767 6.92994C10.4805 6.92994 13.07 7.54844 13.07 8.31048C13.07 8.50152 12.906 8.68503 12.6091 8.85016C12.417 8.85558 12.2227 8.85773 12.0273 8.85773C8.67794 8.85773 5.8089 8.12698 4.60645 7.08751C5.40842 6.98712 6.31945 6.92994 7.28767 6.92994Z" fill="#CE8829" />
    <path d="M12.5904 11.1947V12.4619C12.8139 12.3766 13.0222 12.2859 13.2122 12.1909V11.1936L12.5904 11.1947ZM10.966 12.9249C10.7599 12.968 10.5529 13.0069 10.3453 13.0415V11.8337L10.966 11.8347V12.9249ZM8.71972 13.2304C8.51573 13.2455 8.30955 13.2563 8.09906 13.265V12.1122L8.71972 12.1132V13.2304ZM6.47457 13.2649C6.26516 13.2563 6.0579 13.2455 5.85283 13.2304V12.1132L6.47457 12.1122V13.2649ZM4.22833 13.0415C4.0207 13.0067 3.81378 12.9679 3.60768 12.9249V11.8337L4.22833 11.8347V13.0415ZM1.98426 12.4619C1.75975 12.3766 1.55249 12.2859 1.36145 12.1909V11.1947L1.98426 11.1936V12.4619Z" fill="#C85929" />
    <path d="M18.4243 8.71742V9.27547H18.9813V9.8087H18.4243V10.3657H17.8911V9.8087H17.3341V9.27547H17.8911V8.71742H18.4243ZM1.70978 14.3778V14.9348H2.26675V15.468H1.70978V16.025H1.17655V15.468H0.6185V14.9348H1.17655V14.3778H1.70978ZM1.70978 2.72567V3.28264H2.26675V3.81587H1.70978V4.37392H1.17655V3.81587H0.6185V3.28264H1.17655V2.72567H1.70978Z" fill="#FEA832" />
    <path fill-rule="evenodd" clip-rule="evenodd" d="M3.90344 3.18549C3.90344 1.7553 7.15675 0.594925 11.1711 0.594925C15.1854 0.594925 18.4397 1.75526 18.4397 3.18549V5.56665C18.4397 6.99685 15.1854 8.15722 11.1711 8.15722C7.15675 8.15722 3.90344 6.99689 3.90344 5.56665V3.18549Z" fill="#FE9923" />
    <path fill-rule="evenodd" clip-rule="evenodd" d="M11.1711 0.594925C15.1853 0.594925 18.4397 1.75526 18.4397 3.18549C18.4397 4.61677 15.1854 5.77714 11.1711 5.77714C7.15675 5.77714 3.90344 4.61677 3.90344 3.18549C3.90344 1.7553 7.15675 0.594925 11.1711 0.594925Z" fill="#FECD3D" />
    <path fill-rule="evenodd" clip-rule="evenodd" d="M11.1709 1.80603C14.3649 1.80603 16.9533 2.42346 16.9533 3.1855C16.9533 3.94865 14.3649 4.56604 11.1709 4.56604C7.97807 4.56604 5.38858 3.94861 5.38858 3.1855C5.38858 2.42346 7.97804 1.80603 11.1709 1.80603Z" fill="#FEA832" />
    <path d="M16.4739 6.07075V7.33796C16.6973 7.25268 16.9056 7.16202 17.0956 7.06702V6.06967L16.4739 6.07075ZM14.8494 7.80101C14.6434 7.84423 14.4364 7.88273 14.2287 7.91649V6.70973L14.8494 6.71081V7.80101ZM12.6042 8.10649C12.4002 8.12052 12.193 8.1324 11.9836 8.14104V6.98824L12.6042 6.98932V8.10649ZM10.3591 8.14104C10.1517 8.13239 9.9444 8.12087 9.73733 8.10649V6.98932L10.3591 6.98824V8.14104ZM8.11283 7.91649C7.90509 7.88271 7.69815 7.84421 7.49217 7.80101V6.70973L8.11283 6.71081V7.91649ZM5.86767 7.33796C5.64424 7.25268 5.4359 7.16202 5.24594 7.06702V6.07075L5.86767 6.06967V7.33796Z" fill="#C85929" />
  </g>
  <defs>
    <clipPath id="clip0_22_174">
      <rect width="19" height="19" fill="white" />
    </clipPath>
  </defs>
</svg>