<svg width="100" height="100" viewBox="0 0 100 100" fill="none" xmlns="http://www.w3.org/2000/svg">
<path fill-rule="evenodd" clip-rule="evenodd" d="M55.2081 63.125C55.2081 62.2962 55.5373 61.5013 56.1234 60.9153C56.7094 60.3292 57.5043 60 58.3331 60H91.6664C92.4952 60 93.2901 60.3292 93.8761 60.9153C94.4622 61.5013 94.7914 62.2962 94.7914 63.125V96.4583C94.7914 97.2871 94.4622 98.082 93.8761 98.6681C93.2901 99.2541 92.4952 99.5833 91.6664 99.5833H58.3331C57.5043 99.5833 56.7094 99.2541 56.1234 98.6681C55.5373 98.082 55.2081 97.2871 55.2081 96.4583V63.125ZM61.4581 66.25V93.3333H88.5414V66.25H61.4581ZM27.0831 10C27.6377 9.99964 28.1824 10.1469 28.6613 10.4266C29.1402 10.7063 29.536 11.1084 29.8081 11.5917L48.5581 44.925C48.8259 45.4007 48.9645 45.9382 48.96 46.484C48.9555 47.0299 48.8081 47.5651 48.5325 48.0362C48.2569 48.5074 47.8626 48.8982 47.389 49.1696C46.9154 49.441 46.379 49.5837 45.8331 49.5833H8.33309C7.78722 49.5837 7.25077 49.441 6.77716 49.1696C6.30355 48.8982 5.9093 48.5074 5.63367 48.0362C5.35804 47.5651 5.21065 47.0299 5.20616 46.484C5.20167 45.9382 5.34025 45.4007 5.60809 44.925L24.3581 11.5917C24.6302 11.1084 25.026 10.7063 25.5049 10.4266C25.9838 10.1469 26.5285 9.99964 27.0831 10ZM13.6748 43.3333H40.4914L27.0831 19.5L13.6748 43.3333ZM55.2081 29.7917C55.2081 27.1926 55.72 24.619 56.7146 22.2177C57.7093 19.8165 59.1671 17.6347 61.0049 15.7968C62.8428 13.959 65.0246 12.5012 67.4258 11.5066C69.827 10.5119 72.4007 10 74.9998 10C77.5988 10 80.1725 10.5119 82.5737 11.5066C84.9749 12.5012 87.1568 13.959 88.9946 15.7968C90.8324 17.6347 92.2903 19.8165 93.2849 22.2177C94.2795 24.619 94.7914 27.1926 94.7914 29.7917C94.7914 35.0407 92.7062 40.0748 88.9946 43.7865C85.2829 47.4981 80.2488 49.5833 74.9998 49.5833C69.7507 49.5833 64.7166 47.4981 61.0049 43.7865C57.2933 40.0748 55.2081 35.0407 55.2081 29.7917ZM74.9998 16.25C71.4083 16.25 67.9639 17.6767 65.4244 20.2163C62.8848 22.7558 61.4581 26.2002 61.4581 29.7917C61.4581 33.3831 62.8848 36.8275 65.4244 39.3671C67.9639 41.9066 71.4083 43.3333 74.9998 43.3333C78.5912 43.3333 82.0356 41.9066 84.5752 39.3671C87.1147 36.8275 88.5414 33.3831 88.5414 29.7917C88.5414 26.2002 87.1147 22.7558 84.5752 20.2163C82.0356 17.6767 78.5912 16.25 74.9998 16.25ZM6.12476 60.9167C6.7107 60.3315 7.50497 60.0028 8.33309 60.0028C9.16122 60.0028 9.95549 60.3315 10.5414 60.9167L43.8748 94.25C44.1818 94.5361 44.428 94.8811 44.5988 95.2644C44.7696 95.6478 44.8615 96.0616 44.8689 96.4812C44.8763 96.9008 44.7991 97.3175 44.6419 97.7067C44.4848 98.0958 44.2508 98.4493 43.9541 98.746C43.6573 99.0427 43.3039 99.2767 42.9147 99.4339C42.5256 99.591 42.1088 99.6682 41.6893 99.6608C41.2697 99.6534 40.8558 99.5616 40.4725 99.3908C40.0892 99.22 39.7442 98.9737 39.4581 98.6667L6.12476 65.3333C5.53955 64.7474 5.21084 63.9531 5.21084 63.125C5.21084 62.2969 5.53955 61.5026 6.12476 60.9167Z" fill="white"/>
<path fill-rule="evenodd" clip-rule="evenodd" d="M43.875 60.9167C44.4602 61.5026 44.7889 62.2969 44.7889 63.125C44.7889 63.9531 44.4602 64.7474 43.875 65.3333L10.5416 98.6667C9.94924 99.2187 9.16571 99.5192 8.35613 99.5049C7.54654 99.4906 6.7741 99.1626 6.20155 98.5901C5.62899 98.0175 5.30103 97.2451 5.28674 96.4355C5.27246 95.6259 5.57297 94.8424 6.12497 94.25L39.4583 60.9167C40.0442 60.3315 40.8385 60.0027 41.6666 60.0027C42.4948 60.0027 43.289 60.3315 43.875 60.9167Z" fill="white"/>
</svg>
